<?xml version="1.0" encoding="UTF-8"?>
<svg width="700pt" height="700pt" version="1.1" viewBox="0 0 700 700" xmlns="http://www.w3.org/2000/svg">
 <path d="m201.43 428.57c3.7031 3.1719 5.9141 7.7461 6.1016 12.617 0.19141 4.8711-1.6641 9.6016-5.1094 13.051-3.4492 3.4453-8.1797 5.3008-13.051 5.1133-4.8711-0.19141-9.4453-2.4023-12.617-6.1055-30.414-30.41-52.285-68.293-63.418-109.84-11.133-41.543-11.133-85.285 0-126.83 11.133-41.543 33.004-79.426 63.418-109.84 4.5039-3.8594 10.656-5.1719 16.348-3.4883 5.6875 1.6797 10.137 6.1289 11.816 11.816 1.6836 5.6875 0.36719 11.84-3.4883 16.348-26.102 26.07-44.871 58.555-54.426 94.184-9.5547 35.633-9.5547 73.148 0 108.78 9.5547 35.629 28.324 68.113 54.426 94.184zm8.5742-148.57c-0.027344-37.141 14.703-72.773 40.949-99.051 3.7031-3.1719 5.918-7.7422 6.1055-12.617 0.1875-4.8711-1.6641-9.6016-5.1133-13.047-3.4492-3.4492-8.1758-5.3008-13.051-5.1133-4.8711 0.1875-9.4453 2.3984-12.617 6.1016-32.805 32.82-51.234 77.324-51.234 123.73s18.43 90.906 51.234 123.73c4.5078 3.8555 10.66 5.1719 16.348 3.4883s10.137-6.1328 11.82-11.82c1.6797-5.6875 0.36719-11.84-3.4922-16.344-26.246-26.277-40.977-61.91-40.949-99.051zm90.477-74.199c-3.2812-3.2617-7.7148-5.0898-12.34-5.0898-4.6211 0-9.0586 1.8281-12.336 5.0898-19.664 19.688-30.707 46.375-30.707 74.199s11.043 54.512 30.707 74.199c4.5039 3.8594 10.656 5.1719 16.344 3.4922 5.6875-1.6836 10.137-6.1328 11.82-11.82s0.36719-11.84-3.4883-16.348c-13.145-13.129-20.531-30.945-20.531-49.523s7.3867-36.395 20.531-49.523c3.2578-3.2812 5.0859-7.7148 5.0859-12.34 0-4.6211-1.8281-9.0586-5.0859-12.336zm277.02-100.8v350c0 4.6406-1.8438 9.0938-5.125 12.375s-7.7344 5.125-12.375 5.125h-210c-4.6406 0-9.0938-1.8438-12.375-5.125s-5.125-7.7344-5.125-12.375v-350c0-4.6406 1.8438-9.0938 5.125-12.375s7.7344-5.125 12.375-5.125h210c4.6406 0 9.0938 1.8438 12.375 5.125s5.125 7.7344 5.125 12.375zm-35 17.5h-25.199c0.046875 4.1484-1.3789 8.1797-4.0273 11.375l-15.051 17.5h0.003906c-3.3281 3.8867-8.1875 6.125-13.301 6.125h-59.852c-5.1133 0-9.9727-2.2383-13.301-6.125l-15.051-17.5h0.003906c-2.6484-3.1953-4.0742-7.2266-4.0273-11.375h-25.199v315h175z"/>
</svg>
